<svg xmlns="http://www.w3.org/2000/svg" width="320" height="56" viewBox="0 0 320 56" fill="none" role="img" aria-label="MindoraInsight">
  <!-- Network brain mark -->
  <g transform="translate(2,2) scale(0.8125)">
    <g stroke="#31B070" stroke-linecap="round" stroke-linejoin="round">
      <path
        d="M28 8 L36 10 L44 14 L50 22 L52 32 L50 42 L44 50 L34 54 L24 52 L18 46 L16 36 L18 24 L22 14 Z"
        stroke-width="2.4"
        fill="none"
      />
      <path d="M28 8 L30 18 L36 10" stroke-width="1.1" opacity="0.9"/>
      <path d="M36 10 L34 22 L44 14" stroke-width="1.1" opacity="0.9"/>
      <path d="M44 14 L40 26 L50 22" stroke-width="1.1" opacity="0.9"/>
      <path d="M22 14 L26 24 L30 18" stroke-width="1.1" opacity="0.85"/>
      <path d="M18 24 L26 24 L34 22 L40 26 L46 30" stroke-width="1.1" opacity="0.85"/>
      <path d="M16 36 L24 34 L32 30 L40 26 L46 34" stroke-width="1.1" opacity="0.85"/>
      <path d="M24 34 L28 42 L34 38 L40 42" stroke-width="1.1" opacity="0.85"/>
      <path d="M18 46 L24 44 L28 42 L34 46 L44 50" stroke-width="1.1" opacity="0.85"/>
      <path d="M30 18 L32 30 L28 42 L34 54" stroke-width="1.1" opacity="0.8"/>
      <path d="M34 22 L32 30 L34 38 L40 42 L50 42" stroke-width="1.1" opacity="0.8"/>
      <path d="M40 26 L46 34 L44 44 L34 46" stroke-width="1.1" opacity="0.8"/>
      <path d="M26 24 L24 34 L24 44 L24 52" stroke-width="1.05" opacity="0.75"/>
    </g>
    <g fill="#31B070">
      <circle cx="28" cy="8" r="2.2"/>
      <circle cx="36" cy="10" r="1.8"/>
      <circle cx="44" cy="14" r="2"/>
      <circle cx="50" cy="22" r="1.7"/>
      <circle cx="52" cy="32" r="2.1"/>
      <circle cx="50" cy="42" r="1.8"/>
      <circle cx="44" cy="50" r="2"/>
      <circle cx="34" cy="54" r="2.2"/>
      <circle cx="24" cy="52" r="1.7"/>
      <circle cx="18" cy="46" r="1.9"/>
      <circle cx="16" cy="36" r="2"/>
      <circle cx="18" cy="24" r="1.8"/>
      <circle cx="22" cy="14" r="1.6"/>
      <circle cx="30" cy="18" r="2.4"/>
      <circle cx="34" cy="22" r="1.5"/>
      <circle cx="40" cy="26" r="2.1"/>
      <circle cx="26" cy="24" r="1.4"/>
      <circle cx="32" cy="30" r="2.6"/>
      <circle cx="46" cy="30" r="1.3"/>
      <circle cx="24" cy="34" r="1.8"/>
      <circle cx="34" cy="38" r="1.6"/>
      <circle cx="46" cy="34" r="1.5"/>
      <circle cx="28" cy="42" r="2"/>
      <circle cx="40" cy="42" r="1.7"/>
      <circle cx="24" cy="44" r="1.4"/>
      <circle cx="34" cy="46" r="1.9"/>
      <circle cx="44" cy="44" r="1.3"/>
    </g>
  </g>
  <text
    x="64"
    y="36"
    font-family="Public Sans, system-ui, -apple-system, Segoe UI, sans-serif"
    font-size="24"
    font-weight="700"
    letter-spacing="-0.7"
  >
    <tspan fill="#032514">Mindora</tspan><tspan fill="#31B070">Insight</tspan>
  </text>
</svg>
